# xmcd
#
# Track frame offsets:
#	150
#	38728
#	92726
#	130573
#	172163
#	193610
#	222486
#
# Disc length: 3628 seconds
#
# Revision: 1
# Processed by: cddbd v1.5.1PL0 Copyright (c) Steve Scherf et al.
# Submitted via: audiograbber 1.83.01
#
DISCID=5f0e2a07
DTITLE=Jay Gordon - Broadcasting The Blues
DYEAR=1996
DGENRE=Electric Blues
TTITLE0=Delta Row
TTITLE1=Hoochie Coochie Man - Big Boss Man
TTITLE2=Sky Is Cryin'
TTITLE3=Leave My Little Girl Alone
TTITLE4=Voodo Boogie - Dust My Broom
TTITLE5=Blues Infest
TTITLE6=Stop Breakin' Down
EXTD=
EXTT0=
EXTT1=
EXTT2=
EXTT3=
EXTT4=
EXTT5=
EXTT6=
PLAYORDER=
